<svg width="44" height="44" viewBox="0 0 44 44" fill="none" xmlns="http://www.w3.org/2000/svg">
<path d="M39.192 13.9925C43.8798 21.4945 41.5984 31.3762 34.0964 36.0639C28.1693 39.7677 20.7564 39.1212 15.5935 34.9864L16.3608 34.507C21.2373 38.2559 28.122 38.7938 33.6448 35.343C40.7478 30.9046 42.9079 21.5483 38.4695 14.4452C35.4245 9.57232 30.5743 6.97855 25.2158 7.29291C23.7505 7.37859 22.5092 7.80313 22.5092 7.80313C22.5092 7.80313 22.4445 7.35711 22.351 7.08443C28.9133 5.31145 35.1116 7.46256 39.1921 13.9925H39.192ZM9.96383 25.9365L10.733 25.4559C10.0217 21.895 10.525 18.4592 12.2788 15.3239C12.2788 15.3239 11.8468 14.8533 11.5935 14.7197C9.72123 18.1082 9.11795 22.107 9.96392 25.9365L9.96383 25.9365ZM30.043 26.9612C29.9535 26.8334 29.8992 26.5906 29.8801 26.2327C29.8673 25.76 29.8609 25.3575 29.8609 25.0251V20.2331C29.8609 18.9744 29.415 18.1182 28.5232 17.6645C27.6311 17.2109 26.6108 16.9841 25.4622 16.9841C23.6974 16.984 22.4525 17.4441 21.7274 18.3642C21.2717 18.9522 21.0151 19.7029 20.9574 20.6165H23.5931C23.6577 20.214 23.7872 19.8945 23.9816 19.6582C24.2535 19.3387 24.7166 19.179 25.3708 19.179C25.9537 19.179 26.3957 19.2605 26.6969 19.4233C26.9981 19.5862 27.1487 19.8817 27.1487 20.3099C27.1486 20.6614 26.9523 20.9201 26.5598 21.0861C26.3409 21.182 25.9772 21.2619 25.4688 21.3258L24.5323 21.4407C23.4703 21.575 22.6657 21.7986 22.1185 22.1117C21.1208 22.6868 20.622 23.6164 20.6221 24.9006C20.6219 25.891 20.932 26.6561 21.5522 27.196C22.1725 27.7358 22.9578 28.0058 23.9092 28.0058C24.6546 28.0058 25.3231 27.8366 25.9144 27.498C26.4093 27.2105 26.8463 26.8623 27.2256 26.4534C27.2447 26.6898 27.2702 26.9007 27.3022 27.086C27.3341 27.2713 27.3917 27.4693 27.4748 27.6802H30.4459V27.2777C30.2666 27.1946 30.1322 27.0892 30.0429 26.9614L30.043 26.9612ZM27.1388 23.6164C27.1195 24.5301 26.8584 25.1595 26.3555 25.5045C25.8526 25.8496 25.3028 26.0221 24.706 26.022C24.3296 26.022 24.01 25.9182 23.7473 25.7106C23.4845 25.503 23.3531 25.166 23.3532 24.6995C23.3532 24.1755 23.5682 23.789 23.9984 23.5398C24.2525 23.3929 24.671 23.2683 25.2539 23.1661L25.8756 23.0511C26.1865 22.9936 26.4309 22.9313 26.609 22.8642C26.7937 22.7939 26.971 22.7057 27.1384 22.6006V23.6164H27.1388ZM19.3892 9.42863C19.3892 7.25897 17.6304 5.5 15.4607 5.5C13.2909 5.5 11.5323 7.25897 11.5323 9.42863C11.5323 11.5983 13.2912 13.3573 15.4608 13.3573C17.6305 13.3573 19.3893 11.5983 19.3893 9.42863M27.2801 10.8771C25.5428 10.6021 23.8342 10.7228 22.2462 11.1726C21.8123 12.8475 20.7611 14.3655 19.178 15.3545C17.9937 16.0945 16.674 16.4374 15.3745 16.419C14.6156 17.6783 14.082 19.1019 13.8379 20.6435C13.443 23.136 13.8633 25.5692 14.9011 27.6721L12.9252 28.9069C12.281 28.5652 11.476 28.5735 10.8211 28.9988L3.31828 33.8711C2.35707 34.4955 2.08388 35.7806 2.70804 36.7417C3.33229 37.7029 4.61714 37.976 5.57827 37.3518L13.0812 32.4793C13.7433 32.0494 14.0788 31.3059 14.0196 30.5706L15.9296 29.3771C17.6967 31.8149 20.3952 33.5776 23.604 34.0858C30.0129 35.1008 36.0311 30.7283 37.0462 24.3195C38.0613 17.9106 33.6889 11.8925 27.28 10.8772L27.2801 10.8771ZM33.7542 23.9621C33.0273 28.5514 28.7179 31.6823 24.1288 30.9555C19.5398 30.2286 16.4086 25.919 17.1355 21.3299C17.8623 16.7409 22.1719 13.6098 26.761 14.3366C31.3501 15.0635 34.481 19.3731 33.7542 23.9621Z" fill="white"/>
</svg>
