<svg width="294" height="209" viewBox="0 0 294 209" fill="none" xmlns="http://www.w3.org/2000/svg">
<g clip-path="url(#clip0_762_1143)">
<path d="M177.765 0.225342L139.228 208.778H103.939L0.304688 25.034L0.525551 24.9079L28.2363 20.2556L117.659 178.794L150.656 0.225342H177.765Z" fill="#28487B" stroke="white" stroke-width="1.17" stroke-miterlimit="10"/>
<path d="M206.333 0.24444L206.321 0.225342H177.441L138.908 208.778H176.192L270.295 143.905L293.711 127.767L206.333 0.24444ZM173.896 175.788L199.014 39.8657L254.207 120.422L173.896 175.788Z" fill="#192134" stroke="white" stroke-width="1.1" stroke-miterlimit="10"/>
<path d="M127.379 162.609L124.03 180.738L136.281 183.015L139.631 164.887L127.379 162.609Z" fill="white"/>
<path d="M123.569 183.233L120.219 201.361L132.47 203.639L135.82 185.51L123.569 183.233Z" fill="white"/>
<path d="M132.016 205.757L131.46 208.778H118.787L119.765 203.481L132.016 205.757Z" fill="white"/>
<path d="M138.166 185.393L136.34 195.278L138.534 195.686L140.36 185.801L138.166 185.393Z" fill="white"/>
<path d="M136.067 208.778L137.686 200.016L135.492 199.607L133.798 208.778" fill="white"/>
<path d="M140.837 171.178L139.01 181.063L141.204 181.471L143.031 171.586L140.837 171.178Z" fill="white"/>
<path d="M119.508 180.807L117.681 190.692L119.875 191.1L121.702 181.215L119.508 180.807Z" fill="white"/>
<path d="M116.833 195.021L115.007 204.906L117.201 205.314L119.027 195.429L116.833 195.021Z" fill="white"/>
<path d="M122.178 166.596L120.352 176.481L122.546 176.889L124.372 167.004L122.178 166.596Z" fill="white"/>
<path d="M197.631 0.225342L195.689 10.7485L183.435 8.47197L184.958 0.225342H197.631Z" fill="white"/>
<path d="M182.974 10.9677L179.624 29.0964L191.875 31.374L195.225 13.2453L182.974 10.9677Z" fill="white"/>
<path d="M179.166 31.2123L175.816 49.3411L188.068 51.6186L191.417 33.4899L179.166 31.2123Z" fill="white"/>
<path d="M202.642 0.225342L202.002 3.69359L199.809 3.28488L200.376 0.225342H202.642Z" fill="white"/>
<path d="M198.96 7.61257L197.134 17.4976L199.328 17.9055L201.154 8.02047L198.96 7.61257Z" fill="white"/>
<path d="M196.313 21.6223L194.487 31.5073L196.681 31.9152L198.507 22.0302L196.313 21.6223Z" fill="white"/>
<path d="M193.635 35.8367L191.809 45.7217L194.003 46.1296L195.829 36.2446L193.635 35.8367Z" fill="white"/>
<path d="M180.302 3.03005L178.475 12.915L180.669 13.3229L182.496 3.43795L180.302 3.03005Z" fill="white"/>
<path d="M177.655 17.0398L175.828 26.9248L178.022 27.3327L179.849 17.4477L177.655 17.0398Z" fill="white"/>
<path d="M174.977 31.2503L173.15 41.1353L175.345 41.5432L177.171 31.6582L174.977 31.2503Z" fill="white"/>
<path d="M131.186 141.302L127.836 159.344L140.088 161.611L143.437 143.569L131.186 141.302Z" fill="white"/>
<path d="M143.684 156.155L141.857 165.993L144.052 166.399L145.878 156.561L143.684 156.155Z" fill="white"/>
<path d="M127.699 137.71L125.872 147.547L128.066 147.953L129.893 138.116L127.699 137.71Z" fill="white"/>
<path d="M125.025 151.595L123.199 161.432L125.393 161.838L127.219 152.001L125.025 151.595Z" fill="white"/>
<path d="M146.357 142.274L144.531 152.112L146.725 152.518L148.551 142.68L146.357 142.274Z" fill="white"/>
<path d="M175.359 51.5918L172.01 69.6338L184.261 71.9005L187.611 53.8585L175.359 51.5918Z" fill="white"/>
<path d="M190.964 49.812L189.138 59.6497L191.332 60.0556L193.158 50.2179L190.964 49.812Z" fill="white"/>
<path d="M188.29 63.9582L186.463 73.7959L188.657 74.2018L190.484 64.3642L188.29 63.9582Z" fill="white"/>
<path d="M172.305 45.2512L170.479 55.0889L172.673 55.4948L174.5 45.6571L172.305 45.2512Z" fill="white"/>
<path d="M169.632 59.3977L167.805 69.2354L169.999 69.6413L171.826 59.8036L169.632 59.3977Z" fill="white"/>
<path d="M134.993 120.774L131.643 138.816L143.894 141.082L147.244 123.04L134.993 120.774Z" fill="white"/>
<path d="M148.679 128.321L146.853 138.159L149.047 138.565L150.873 128.727L148.679 128.321Z" fill="white"/>
<path d="M130.02 123.76L128.194 133.598L130.388 134.004L132.214 124.166L130.02 123.76Z" fill="white"/>
<path d="M171.553 72.1167L168.203 90.1587L180.454 92.4254L183.804 74.3834L171.553 72.1167Z" fill="white"/>
<path d="M185.639 77.9008L183.812 87.7385L186.007 88.1445L187.833 78.3068L185.639 77.9008Z" fill="white"/>
<path d="M166.98 73.34L165.154 83.1777L167.348 83.5837L169.174 73.746L166.98 73.34Z" fill="white"/>
</g>
<defs>
<clipPath id="clip0_762_1143">
<rect width="294" height="209" fill="white"/>
</clipPath>
</defs>
</svg>
