<svg width="54" height="40" viewBox="0 0 54 40" fill="none" xmlns="http://www.w3.org/2000/svg">
<path d="M17.1673 15.3334H14.084V33.8334C14.084 34.6511 14.4088 35.4354 14.9871 36.0136C15.5653 36.5919 16.3496 36.9167 17.1673 36.9167H35.6673V33.8334H17.1673V15.3334Z" fill="white"/>
<path d="M41.8333 6.08337H23.3333C22.5156 6.08337 21.7313 6.40822 21.1531 6.98646C20.5749 7.5647 20.25 8.34896 20.25 9.16671V27.6667C20.25 28.4845 20.5749 29.2687 21.1531 29.847C21.7313 30.4252 22.5156 30.75 23.3333 30.75H41.8333C42.6511 30.75 43.4353 30.4252 44.0136 29.847C44.5918 29.2687 44.9167 28.4845 44.9167 27.6667V9.16671C44.9167 8.34896 44.5918 7.5647 44.0136 6.98646C43.4353 6.40822 42.6511 6.08337 41.8333 6.08337ZM27.9583 24.5834V12.25L38.75 18.4167L27.9583 24.5834Z" fill="white"/>
</svg>
